<!-- Save as: logo-pumpkin.svg -->
<svg xmlns="http://www.w3.org/2000/svg" width="64" height="64" viewBox="0 0 64 64" role="img" aria-label="Spooky Events Finder pumpkin logo">
  <defs>
    <linearGradient id="g" x1="0" x2="1" y1="0" y2="1">
      <stop offset="0" stop-color="#ff8a26"></stop>
      <stop offset="1" stop-color="#ff7518"></stop>
    </linearGradient>
  </defs>

  <!-- subtle shadow -->
  <ellipse cx="32" cy="54" rx="18" ry="4" fill="#000" opacity=".25"></ellipse>

  <!-- left & right lobes -->
  <ellipse cx="22" cy="30" rx="12" ry="16" fill="#e55e07"></ellipse>
  <ellipse cx="42" cy="30" rx="12" ry="16" fill="#e55e07"></ellipse>

  <!-- center lobe -->
  <ellipse cx="32" cy="30" rx="14" ry="18" fill="url(#g)" stroke="#c84f05" stroke-width="1.5"></ellipse>

  <!-- stem -->
  <path d="M33 10c2 0 4 2 4 4 0 2-2 4-5 5-2 .6-4 2-5 3 0-3 2-5 3-6-1-2-1-6 3-6z" fill="#2e7d32"></path>

  <!-- face -->
  <path d="M22 29l6-4 6 4-6 1z" fill="#0b0b0b"></path>          <!-- nose -->
  <path d="M19 26l6-4 6 4-6 2zM33 26l6-4 6 4-6 2z" fill="#0b0b0b"></path>  <!-- eyes -->
  <!-- mouth -->
  <path d="M20 37
           c3 4 7 6 12 6
           c5 0 9-2 12-6
           l-3-2 -3 2 -3-2 -3 2 -3-2 -3 2 -3-2z" fill="#0b0b0b"></path>
</svg>
